<?xml version="1.0" encoding="UTF-8" standalone="no"?>
<!DOCTYPE svg PUBLIC "-//W3C//DTD SVG 20010904//EN" "http://www.w3.org/TR/2001/REC-SVG-20010904/DTD/svg10.dtd">
<svg version="1.0" xmlns="http://www.w3.org/2000/svg" width="200.000000pt" height="200.000000pt" viewBox="0 0 200.000000 200.000000" preserveAspectRatio="xMidYMid meet">

<g transform="translate(0.000000,200.000000) scale(0.100000,-0.100000)" fill="#000000" stroke="none">
<path d="M208 1273 c-60 -3 -68 -6 -68 -23 0 -16 7 -20 35 -20 l35 0 0 -79 c0 -96 5 -111 36 -111 24 0 24 1 24 95 l0 95 35 0 c28 0 35 4 35 20 0 13 -7 20 -19 20 -11 0 -25 1 -33 3 -7 2 -43 1 -80 0z"/>
<path d="M984 1266 c-70 -31 -94 -108 -54 -173 25 -41 51 -55 107 -55 64 0 85 22 81 86 l-3 51 -44 3 c-63 5 -80 -28 -25 -48 30 -12 21 -40 -13 -40 -36 0 -73 42 -67 77 7 42 31 56 87 48 38 -5 49 -3 54 10 14 39 -67 66 -123 41z"/>
<path d="M1255 1255 c-45 -44 -27 -95 41 -119 22 -7 39 -19 39 -27 0 -20 -39 -23 -55 -4 -18 21 -37 19 -45 -6 -19 -59 97 -87 142 -35 13 15 23 35 23 45 0 28 -32 62 -70 75 -52 17 -51 38 1 34 38 -3 44 0 47 18 2 14 -5 24 -23 32 -40 19 -74 14 -100 -13z"/>
<path d="M1694 1266 c-89 -39 -98 -167 -14 -211 62 -32 159 -9 134 32 -12 18 -17 19 -66 7 -59 -14 -94 78 -42 113 22 14 31 15 57 5 22 -8 34 -9 44 -1 22 19 14 39 -22 55 -42 17 -51 17 -91 0z"/>
<path d="M372 1181 c3 -77 6 -93 26 -114 45 -48 116 -40 152 18 17 28 20 47 18 107 -3 67 -5 73 -25 76 -22 3 -23 0 -23 -60 0 -99 -36 -143 -81 -102 -15 14 -19 31 -19 91 0 72 0 73 -26 73 l-26 0 4 -89z"/>
<path d="M600 1155 l0 -115 55 0 c67 0 109 20 130 60 26 49 19 94 -19 134 -32 34 -37 36 -100 36 l-66 0 0 -115z m122 48 c21 -19 24 -76 4 -92 -8 -7 -27 -13 -42 -14 -28 -2 -29 0 -32 47 -2 27 -1 55 2 62 7 19 46 18 68 -3z"/>
<path d="M825 1257 c-3 -7 -4 -58 -3 -113 3 -98 3 -99 28 -99 l25 0 0 110 c0 107 -1 110 -23 113 -12 2 -24 -3 -27 -11z"/>
<path d="M1157 1264 c-9 -9 -9 -150 -1 -193 5 -25 11 -31 28 -29 20 3 21 9 21 113 0 103 -1 110 -20 113 -12 2 -24 0 -28 -4z"/>
<path d="M1424 1257 c-2 -7 -3 -58 -2 -113 l3 -99 86 -3 c70 -2 88 0 92 12 10 27 -21 46 -74 46 -36 0 -49 4 -49 14 0 10 14 16 43 18 34 2 42 7 42 23 0 16 -8 21 -43 23 -34 3 -43 7 -40 20 2 13 16 18 61 20 53 3 57 5 57 27 0 25 -1 25 -85 25 -62 0 -87 -4 -91 -13z"/>
<path d="M1048 903 c7 -3 16 -2 19 1 4 3 -2 6 -13 5 -11 0 -14 -3 -6 -6z"/>
<path d="M1120 895 c0 -5 5 -17 10 -25 5 -8 10 -10 10 -5 0 6 -5 17 -10 25 -5 8 -10 11 -10 5z"/>
<path d="M1261 856 l2 -41 6 35 c4 26 11 35 26 35 15 0 22 -9 27 -35 l6 -35 -1 40 c-2 38 -4 40 -34 41 -32 1 -33 0 -32 -40z"/>
<path d="M1372 891 c-8 -4 -12 -21 -10 -37 2 -25 7 -29 32 -29 36 0 56 27 40 53 -13 19 -43 26 -62 13z m48 -16 c17 -20 5 -45 -20 -45 -23 0 -35 22 -26 45 7 19 30 19 46 0z"/>
<path d="M1471 858 l2 -43 6 35 c4 22 12 36 24 38 14 3 17 -4 17 -33 0 -22 4 -34 10 -30 6 4 8 10 5 15 -9 14 14 52 28 47 7 -2 15 -19 19 -38 6 -34 6 -34 5 6 l-2 40 -57 3 -58 2 1 -42z"/>
<path d="M1620 866 c0 -20 2 -36 4 -36 8 0 12 61 4 66 -4 3 -8 -11 -8 -30z"/>
<path d="M1672 888 c-27 -27 -6 -68 35 -68 29 0 48 33 33 60 -12 22 -49 27 -68 8z m53 -28 c0 -16 -6 -26 -19 -28 -24 -5 -37 17 -25 41 14 26 44 17 44 -13z"/>
<path d="M1777 893 c-13 -12 -7 -23 18 -35 16 -7 24 -17 20 -26 -3 -8 0 -12 7 -10 23 8 19 28 -6 38 -31 11 -36 35 -6 27 11 -3 20 -1 20 4 0 10 -43 12 -53 2z"/>
<path d="M1155 839 c-4 -6 -5 -12 -2 -15 2 -3 7 2 10 11 7 17 1 20 -8 4z"/>
<path d="M1777 829 c7 -7 15 -10 18 -7 3 3 -2 9 -12 12 -14 6 -15 5 -6 -5z"/>
</g>
</svg>